%
M48
M72
T01C0.02362
T02C0.03150
T03C0.03200
T04C0.03937
T05C0.04000
T06C0.07480
%
T01
X183764Y76800
X173764Y121800
X131264Y161800
X124040Y156800
X143764Y164300
X68764Y146800
X53764Y141800
X38764Y94300
T02
X46205Y171800
X41481Y174950
X46205Y178099
X41481Y181249
X46205Y184398
X68390Y191800
X76264Y191800
X84138Y191800
X163764Y186800
X183764Y186800
X18764Y31800
X18764Y11800
T03
X148764Y11800
X138764Y11800
X126264Y9300
X123174Y27666
X123174Y37666
X123174Y47666
X123174Y57666
X123174Y67666
X123174Y77666
X123174Y87666
X123174Y97666
X123174Y107666
X123174Y117666
X123174Y127666
X123174Y137666
X123174Y147666
X123174Y157666
X138764Y156800
X138764Y146800
X148764Y161800
X148764Y181800
X148764Y191800
X133764Y191800
X133764Y181800
X116796Y186111
X111796Y193611
X106796Y186111
X83764Y179300
X83764Y169300
X93174Y157666
X93174Y147666
X93174Y137666
X93174Y127666
X93174Y117666
X93174Y107666
X93174Y97666
X93174Y87666
X93174Y77666
X93174Y67666
X93174Y57666
X93174Y47666
X93174Y37666
X93174Y27666
X76264Y24300
X76264Y34300
X56264Y46800
X43764Y46800
X23764Y51800
X13764Y51800
X43764Y6800
X56264Y6800
X86264Y9300
X137288Y76485
X147288Y76485
X188764Y161800
T04
X60516Y191800
X92012Y191800
T05
X71264Y64300
X71264Y74300
X71264Y84300
X14867Y86997
X14867Y96997
X14867Y106997
X14867Y116997
X14867Y126997
X14867Y136997
X14867Y76997
X14867Y66997
X201599Y67686
X201599Y77686
X201599Y87686
X201599Y97686
X201599Y107686
X201599Y117686
X201599Y127686
X201599Y137686
X201264Y149300
X201264Y159300
X201264Y169300
X201264Y179300
X201264Y189300
T06
X26127Y163729
X26127Y192469
M30
