G75*
%MOIN*%
%OFA0B0*%
%FSLAX25Y25*%
%IPPOS*%
%LPD*%
%AMOC8*
5,1,8,0,0,1.08239X$1,22.5*
%
%ADD10C,0.00000*%
%ADD11OC8,0.05200*%
%ADD12C,0.06300*%
%ADD13OC8,0.06300*%
%ADD14C,0.05150*%
%ADD15C,0.11220*%
%ADD16C,0.07400*%
%ADD17C,0.05200*%
%ADD18C,0.05937*%
%ADD19C,0.01600*%
%ADD20C,0.03962*%
D10*
X0008764Y0001800D02*
X0008764Y0198650D01*
X0205615Y0198650D01*
X0205615Y0001800D01*
D11*
X0148764Y0011800D03*
X0138764Y0011800D03*
X0126264Y0009300D03*
X0086264Y0009300D03*
X0076264Y0024300D03*
X0076264Y0034300D03*
X0056264Y0046800D03*
X0043764Y0046800D03*
X0023764Y0051800D03*
X0013764Y0051800D03*
X0043764Y0006800D03*
X0056264Y0006800D03*
X0138764Y0146800D03*
X0138764Y0156800D03*
X0148764Y0161800D03*
X0148764Y0181800D03*
X0148764Y0191800D03*
X0116796Y0186111D03*
X0111796Y0193611D03*
X0106796Y0186111D03*
X0083764Y0179300D03*
X0083764Y0169300D03*
X0188764Y0161800D03*
D12*
X0133764Y0191800D03*
X0137288Y0076485D03*
D13*
X0147288Y0076485D03*
X0133764Y0181800D03*
D14*
X0163764Y0186800D03*
X0183764Y0186800D03*
X0084138Y0191800D03*
X0076264Y0191800D03*
X0068390Y0191800D03*
X0046205Y0184398D03*
X0041481Y0181249D03*
X0046205Y0178099D03*
X0041481Y0174950D03*
X0046205Y0171800D03*
X0018764Y0031800D03*
X0018764Y0011800D03*
D15*
X0026127Y0163729D03*
X0026127Y0192469D03*
D16*
X0014867Y0136997D03*
X0014867Y0126997D03*
X0014867Y0116997D03*
X0014867Y0106997D03*
X0014867Y0096997D03*
X0014867Y0086997D03*
X0014867Y0076997D03*
X0014867Y0066997D03*
X0071264Y0064300D03*
X0071264Y0074300D03*
X0071264Y0084300D03*
X0201599Y0087686D03*
X0201599Y0077686D03*
X0201599Y0067686D03*
X0201599Y0097686D03*
X0201599Y0107686D03*
X0201599Y0117686D03*
X0201599Y0127686D03*
X0201599Y0137686D03*
X0201264Y0149300D03*
X0201264Y0159300D03*
X0201264Y0169300D03*
X0201264Y0179300D03*
X0201264Y0189300D03*
D17*
X0125774Y0157666D02*
X0120574Y0157666D01*
X0120574Y0147666D02*
X0125774Y0147666D01*
X0125774Y0137666D02*
X0120574Y0137666D01*
X0120574Y0127666D02*
X0125774Y0127666D01*
X0125774Y0117666D02*
X0120574Y0117666D01*
X0120574Y0107666D02*
X0125774Y0107666D01*
X0125774Y0097666D02*
X0120574Y0097666D01*
X0120574Y0087666D02*
X0125774Y0087666D01*
X0125774Y0077666D02*
X0120574Y0077666D01*
X0120574Y0067666D02*
X0125774Y0067666D01*
X0125774Y0057666D02*
X0120574Y0057666D01*
X0120574Y0047666D02*
X0125774Y0047666D01*
X0125774Y0037666D02*
X0120574Y0037666D01*
X0120574Y0027666D02*
X0125774Y0027666D01*
X0095774Y0027666D02*
X0090574Y0027666D01*
X0090574Y0037666D02*
X0095774Y0037666D01*
X0095774Y0047666D02*
X0090574Y0047666D01*
X0090574Y0057666D02*
X0095774Y0057666D01*
X0095774Y0067666D02*
X0090574Y0067666D01*
X0090574Y0077666D02*
X0095774Y0077666D01*
X0095774Y0087666D02*
X0090574Y0087666D01*
X0090574Y0097666D02*
X0095774Y0097666D01*
X0095774Y0107666D02*
X0090574Y0107666D01*
X0090574Y0117666D02*
X0095774Y0117666D01*
X0095774Y0127666D02*
X0090574Y0127666D01*
X0090574Y0137666D02*
X0095774Y0137666D01*
X0095774Y0147666D02*
X0090574Y0147666D01*
X0090574Y0157666D02*
X0095774Y0157666D01*
D18*
X0092012Y0191800D03*
X0060516Y0191800D03*
D19*
X0071363Y0184398D02*
X0076264Y0191800D01*
X0084138Y0191800D02*
X0083764Y0188926D01*
X0083764Y0179300D01*
X0084138Y0191800D02*
X0084138Y0192174D01*
X0088764Y0196800D01*
X0108607Y0196800D01*
X0111796Y0193611D01*
X0119453Y0193611D01*
X0121264Y0191800D01*
X0121264Y0186800D01*
X0143764Y0164300D01*
X0146264Y0161800D02*
X0138764Y0156800D01*
X0131264Y0161800D02*
X0128764Y0164300D01*
X0126264Y0164300D01*
X0123764Y0161800D01*
X0124040Y0161524D01*
X0124040Y0156800D01*
X0113764Y0151800D02*
X0178764Y0151800D01*
X0188764Y0161800D01*
X0196264Y0159300D02*
X0178764Y0141800D01*
X0107308Y0141800D01*
X0093174Y0127666D01*
X0092308Y0136800D02*
X0083764Y0136800D01*
X0073961Y0126997D01*
X0014867Y0126997D01*
X0014867Y0116997D02*
X0073567Y0116997D01*
X0083764Y0106800D01*
X0092308Y0106800D01*
X0093174Y0107666D01*
X0089040Y0101800D02*
X0093174Y0097666D01*
X0089040Y0101800D02*
X0028764Y0101800D01*
X0023567Y0106997D01*
X0014867Y0106997D01*
X0014867Y0096997D02*
X0023567Y0096997D01*
X0053764Y0066800D01*
X0053764Y0049300D01*
X0056264Y0046800D01*
X0063764Y0046800D01*
X0068764Y0051800D01*
X0083764Y0051800D01*
X0088764Y0056800D01*
X0092308Y0056800D01*
X0093174Y0057666D01*
X0093174Y0047666D02*
X0087308Y0041800D01*
X0018764Y0041800D01*
X0013764Y0046800D01*
X0013764Y0051800D01*
X0028764Y0066800D01*
X0028764Y0081800D01*
X0023567Y0086997D01*
X0014867Y0086997D01*
X0038764Y0094300D02*
X0103764Y0094300D01*
X0103764Y0099300D01*
X0111264Y0106800D01*
X0122308Y0106800D01*
X0123174Y0107666D01*
X0123174Y0117666D02*
X0123193Y0117686D01*
X0201599Y0117686D01*
X0201599Y0127686D02*
X0123193Y0127686D01*
X0123174Y0127666D01*
X0123174Y0137666D02*
X0123193Y0137686D01*
X0201599Y0137686D01*
X0201264Y0159300D02*
X0196264Y0159300D01*
X0201264Y0179300D02*
X0166264Y0179300D01*
X0148764Y0161800D01*
X0146264Y0161800D01*
X0148764Y0161800D02*
X0148764Y0181800D01*
X0113764Y0151800D02*
X0107898Y0157666D01*
X0093174Y0157666D01*
X0093174Y0147666D02*
X0092308Y0146800D01*
X0083764Y0146800D01*
X0073961Y0136997D01*
X0014867Y0136997D01*
X0041481Y0154083D02*
X0053764Y0141800D01*
X0041481Y0154083D02*
X0041481Y0174950D01*
X0046205Y0178099D02*
X0057465Y0178099D01*
X0068764Y0166800D01*
X0068764Y0146800D01*
X0092308Y0136800D02*
X0093174Y0137666D01*
X0103764Y0121800D02*
X0098764Y0116800D01*
X0094040Y0116800D01*
X0093174Y0117666D01*
X0103764Y0121800D02*
X0173764Y0121800D01*
X0184650Y0107686D02*
X0163764Y0086800D01*
X0163764Y0076800D01*
X0143764Y0056800D01*
X0124040Y0056800D01*
X0123174Y0057666D01*
X0123174Y0047666D02*
X0123764Y0047076D01*
X0123764Y0046800D01*
X0143764Y0046800D01*
X0173764Y0076800D01*
X0173764Y0086800D01*
X0184650Y0097686D01*
X0201599Y0097686D01*
X0201599Y0107686D02*
X0184650Y0107686D01*
X0184650Y0087686D02*
X0178764Y0081800D01*
X0178764Y0071800D01*
X0148764Y0036800D01*
X0124040Y0036800D01*
X0123174Y0037666D01*
X0124808Y0029300D02*
X0123174Y0027666D01*
X0124808Y0029300D02*
X0156264Y0029300D01*
X0183764Y0056800D01*
X0183764Y0076800D01*
X0184650Y0087686D02*
X0201599Y0087686D01*
X0143764Y0016800D02*
X0113764Y0016800D01*
X0103764Y0026800D01*
X0103764Y0036800D01*
X0103764Y0094300D01*
X0093174Y0037666D02*
X0092308Y0036800D01*
X0076264Y0034300D01*
X0063764Y0031800D01*
X0056264Y0019300D01*
X0056264Y0006800D01*
X0093174Y0037666D02*
X0094040Y0036800D01*
X0103764Y0036800D01*
X0143764Y0016800D02*
X0148764Y0011800D01*
X0043764Y0046800D02*
X0038764Y0051800D01*
X0023764Y0051800D01*
X0046205Y0184398D02*
X0071363Y0184398D01*
D20*
X0068764Y0146800D03*
X0053764Y0141800D03*
X0038764Y0094300D03*
X0124040Y0156800D03*
X0131264Y0161800D03*
X0143764Y0164300D03*
X0173764Y0121800D03*
X0183764Y0076800D03*
M02*
