G75*
%MOIN*%
%OFA0B0*%
%FSLAX25Y25*%
%IPPOS*%
%LPD*%
%AMOC8*
5,1,8,0,0,1.08239X$1,22.5*
%
%ADD10C,0.00000*%
%ADD11OC8,0.06000*%
%ADD12C,0.07100*%
%ADD13OC8,0.07100*%
%ADD14C,0.05950*%
%ADD15C,0.12020*%
%ADD16C,0.08200*%
%ADD17C,0.06000*%
%ADD18C,0.06737*%
%ADD19C,0.04762*%
D10*
X0008764Y0001800D02*
X0008764Y0198650D01*
X0205615Y0198650D01*
X0205615Y0001800D01*
D11*
X0148764Y0011800D03*
X0138764Y0011800D03*
X0126264Y0009300D03*
X0086264Y0009300D03*
X0076264Y0024300D03*
X0076264Y0034300D03*
X0056264Y0046800D03*
X0043764Y0046800D03*
X0023764Y0051800D03*
X0013764Y0051800D03*
X0043764Y0006800D03*
X0056264Y0006800D03*
X0138764Y0146800D03*
X0138764Y0156800D03*
X0148764Y0161800D03*
X0148764Y0181800D03*
X0148764Y0191800D03*
X0116796Y0186111D03*
X0111796Y0193611D03*
X0106796Y0186111D03*
X0083764Y0179300D03*
X0083764Y0169300D03*
X0188764Y0161800D03*
D12*
X0133764Y0191800D03*
X0137288Y0076485D03*
D13*
X0147288Y0076485D03*
X0133764Y0181800D03*
D14*
X0163764Y0186800D03*
X0183764Y0186800D03*
X0084138Y0191800D03*
X0076264Y0191800D03*
X0068390Y0191800D03*
X0046205Y0184398D03*
X0041481Y0181249D03*
X0046205Y0178099D03*
X0041481Y0174950D03*
X0046205Y0171800D03*
X0018764Y0031800D03*
X0018764Y0011800D03*
D15*
X0026127Y0163729D03*
X0026127Y0192469D03*
D16*
X0014867Y0136997D03*
X0014867Y0126997D03*
X0014867Y0116997D03*
X0014867Y0106997D03*
X0014867Y0096997D03*
X0014867Y0086997D03*
X0014867Y0076997D03*
X0014867Y0066997D03*
X0071264Y0064300D03*
X0071264Y0074300D03*
X0071264Y0084300D03*
X0201599Y0087686D03*
X0201599Y0077686D03*
X0201599Y0067686D03*
X0201599Y0097686D03*
X0201599Y0107686D03*
X0201599Y0117686D03*
X0201599Y0127686D03*
X0201599Y0137686D03*
X0201264Y0149300D03*
X0201264Y0159300D03*
X0201264Y0169300D03*
X0201264Y0179300D03*
X0201264Y0189300D03*
D17*
X0125774Y0157666D02*
X0120574Y0157666D01*
X0120574Y0147666D02*
X0125774Y0147666D01*
X0125774Y0137666D02*
X0120574Y0137666D01*
X0120574Y0127666D02*
X0125774Y0127666D01*
X0125774Y0117666D02*
X0120574Y0117666D01*
X0120574Y0107666D02*
X0125774Y0107666D01*
X0125774Y0097666D02*
X0120574Y0097666D01*
X0120574Y0087666D02*
X0125774Y0087666D01*
X0125774Y0077666D02*
X0120574Y0077666D01*
X0120574Y0067666D02*
X0125774Y0067666D01*
X0125774Y0057666D02*
X0120574Y0057666D01*
X0120574Y0047666D02*
X0125774Y0047666D01*
X0125774Y0037666D02*
X0120574Y0037666D01*
X0120574Y0027666D02*
X0125774Y0027666D01*
X0095774Y0027666D02*
X0090574Y0027666D01*
X0090574Y0037666D02*
X0095774Y0037666D01*
X0095774Y0047666D02*
X0090574Y0047666D01*
X0090574Y0057666D02*
X0095774Y0057666D01*
X0095774Y0067666D02*
X0090574Y0067666D01*
X0090574Y0077666D02*
X0095774Y0077666D01*
X0095774Y0087666D02*
X0090574Y0087666D01*
X0090574Y0097666D02*
X0095774Y0097666D01*
X0095774Y0107666D02*
X0090574Y0107666D01*
X0090574Y0117666D02*
X0095774Y0117666D01*
X0095774Y0127666D02*
X0090574Y0127666D01*
X0090574Y0137666D02*
X0095774Y0137666D01*
X0095774Y0147666D02*
X0090574Y0147666D01*
X0090574Y0157666D02*
X0095774Y0157666D01*
D18*
X0092012Y0191800D03*
X0060516Y0191800D03*
D19*
X0068764Y0146800D03*
X0053764Y0141800D03*
X0038764Y0094300D03*
X0124040Y0156800D03*
X0131264Y0161800D03*
X0143764Y0164300D03*
X0173764Y0121800D03*
X0183764Y0076800D03*
M02*
