G75*
%MOIN*%
%OFA0B0*%
%FSLAX25Y25*%
%IPPOS*%
%LPD*%
%AMOC8*
5,1,8,0,0,1.08239X$1,22.5*
%
%ADD10C,0.00000*%
%ADD11C,0.00600*%
%ADD12C,0.01000*%
%ADD13C,0.00500*%
%ADD14C,0.00400*%
%ADD15C,0.00800*%
%ADD16R,0.03400X0.02400*%
%ADD17R,0.02400X0.03400*%
D10*
X0008764Y0001800D02*
X0008764Y0198650D01*
X0205615Y0198650D01*
X0205615Y0001800D01*
X0008764Y0001800D01*
D11*
X0039264Y0015300D02*
X0039264Y0016800D01*
X0039764Y0017300D01*
X0039764Y0036300D01*
X0039264Y0036800D01*
X0039264Y0038300D01*
X0039266Y0038360D01*
X0039271Y0038421D01*
X0039280Y0038480D01*
X0039293Y0038539D01*
X0039309Y0038598D01*
X0039329Y0038655D01*
X0039352Y0038710D01*
X0039379Y0038765D01*
X0039408Y0038817D01*
X0039441Y0038868D01*
X0039477Y0038917D01*
X0039515Y0038963D01*
X0039557Y0039007D01*
X0039601Y0039049D01*
X0039647Y0039087D01*
X0039696Y0039123D01*
X0039747Y0039156D01*
X0039799Y0039185D01*
X0039854Y0039212D01*
X0039909Y0039235D01*
X0039966Y0039255D01*
X0040025Y0039271D01*
X0040084Y0039284D01*
X0040143Y0039293D01*
X0040204Y0039298D01*
X0040264Y0039300D01*
X0047264Y0039300D01*
X0047324Y0039298D01*
X0047385Y0039293D01*
X0047444Y0039284D01*
X0047503Y0039271D01*
X0047562Y0039255D01*
X0047619Y0039235D01*
X0047674Y0039212D01*
X0047729Y0039185D01*
X0047781Y0039156D01*
X0047832Y0039123D01*
X0047881Y0039087D01*
X0047927Y0039049D01*
X0047971Y0039007D01*
X0048013Y0038963D01*
X0048051Y0038917D01*
X0048087Y0038868D01*
X0048120Y0038817D01*
X0048149Y0038765D01*
X0048176Y0038710D01*
X0048199Y0038655D01*
X0048219Y0038598D01*
X0048235Y0038539D01*
X0048248Y0038480D01*
X0048257Y0038421D01*
X0048262Y0038360D01*
X0048264Y0038300D01*
X0048264Y0036800D01*
X0047764Y0036300D01*
X0047764Y0017300D01*
X0048264Y0016800D01*
X0048264Y0015300D01*
X0048262Y0015240D01*
X0048257Y0015179D01*
X0048248Y0015120D01*
X0048235Y0015061D01*
X0048219Y0015002D01*
X0048199Y0014945D01*
X0048176Y0014890D01*
X0048149Y0014835D01*
X0048120Y0014783D01*
X0048087Y0014732D01*
X0048051Y0014683D01*
X0048013Y0014637D01*
X0047971Y0014593D01*
X0047927Y0014551D01*
X0047881Y0014513D01*
X0047832Y0014477D01*
X0047781Y0014444D01*
X0047729Y0014415D01*
X0047674Y0014388D01*
X0047619Y0014365D01*
X0047562Y0014345D01*
X0047503Y0014329D01*
X0047444Y0014316D01*
X0047385Y0014307D01*
X0047324Y0014302D01*
X0047264Y0014300D01*
X0040264Y0014300D01*
X0040204Y0014302D01*
X0040143Y0014307D01*
X0040084Y0014316D01*
X0040025Y0014329D01*
X0039966Y0014345D01*
X0039909Y0014365D01*
X0039854Y0014388D01*
X0039799Y0014415D01*
X0039747Y0014444D01*
X0039696Y0014477D01*
X0039647Y0014513D01*
X0039601Y0014551D01*
X0039557Y0014593D01*
X0039515Y0014637D01*
X0039477Y0014683D01*
X0039441Y0014732D01*
X0039408Y0014783D01*
X0039379Y0014835D01*
X0039352Y0014890D01*
X0039329Y0014945D01*
X0039309Y0015002D01*
X0039293Y0015061D01*
X0039280Y0015120D01*
X0039271Y0015179D01*
X0039266Y0015240D01*
X0039264Y0015300D01*
X0051764Y0015300D02*
X0051764Y0016800D01*
X0052264Y0017300D01*
X0052264Y0036300D01*
X0051764Y0036800D01*
X0051764Y0038300D01*
X0051766Y0038360D01*
X0051771Y0038421D01*
X0051780Y0038480D01*
X0051793Y0038539D01*
X0051809Y0038598D01*
X0051829Y0038655D01*
X0051852Y0038710D01*
X0051879Y0038765D01*
X0051908Y0038817D01*
X0051941Y0038868D01*
X0051977Y0038917D01*
X0052015Y0038963D01*
X0052057Y0039007D01*
X0052101Y0039049D01*
X0052147Y0039087D01*
X0052196Y0039123D01*
X0052247Y0039156D01*
X0052299Y0039185D01*
X0052354Y0039212D01*
X0052409Y0039235D01*
X0052466Y0039255D01*
X0052525Y0039271D01*
X0052584Y0039284D01*
X0052643Y0039293D01*
X0052704Y0039298D01*
X0052764Y0039300D01*
X0059764Y0039300D01*
X0059824Y0039298D01*
X0059885Y0039293D01*
X0059944Y0039284D01*
X0060003Y0039271D01*
X0060062Y0039255D01*
X0060119Y0039235D01*
X0060174Y0039212D01*
X0060229Y0039185D01*
X0060281Y0039156D01*
X0060332Y0039123D01*
X0060381Y0039087D01*
X0060427Y0039049D01*
X0060471Y0039007D01*
X0060513Y0038963D01*
X0060551Y0038917D01*
X0060587Y0038868D01*
X0060620Y0038817D01*
X0060649Y0038765D01*
X0060676Y0038710D01*
X0060699Y0038655D01*
X0060719Y0038598D01*
X0060735Y0038539D01*
X0060748Y0038480D01*
X0060757Y0038421D01*
X0060762Y0038360D01*
X0060764Y0038300D01*
X0060764Y0036800D01*
X0060264Y0036300D01*
X0060264Y0017300D01*
X0060764Y0016800D01*
X0060764Y0015300D01*
X0060762Y0015240D01*
X0060757Y0015179D01*
X0060748Y0015120D01*
X0060735Y0015061D01*
X0060719Y0015002D01*
X0060699Y0014945D01*
X0060676Y0014890D01*
X0060649Y0014835D01*
X0060620Y0014783D01*
X0060587Y0014732D01*
X0060551Y0014683D01*
X0060513Y0014637D01*
X0060471Y0014593D01*
X0060427Y0014551D01*
X0060381Y0014513D01*
X0060332Y0014477D01*
X0060281Y0014444D01*
X0060229Y0014415D01*
X0060174Y0014388D01*
X0060119Y0014365D01*
X0060062Y0014345D01*
X0060003Y0014329D01*
X0059944Y0014316D01*
X0059885Y0014307D01*
X0059824Y0014302D01*
X0059764Y0014300D01*
X0052764Y0014300D01*
X0052704Y0014302D01*
X0052643Y0014307D01*
X0052584Y0014316D01*
X0052525Y0014329D01*
X0052466Y0014345D01*
X0052409Y0014365D01*
X0052354Y0014388D01*
X0052299Y0014415D01*
X0052247Y0014444D01*
X0052196Y0014477D01*
X0052147Y0014513D01*
X0052101Y0014551D01*
X0052057Y0014593D01*
X0052015Y0014637D01*
X0051977Y0014683D01*
X0051941Y0014732D01*
X0051908Y0014783D01*
X0051879Y0014835D01*
X0051852Y0014890D01*
X0051829Y0014945D01*
X0051809Y0015002D01*
X0051793Y0015061D01*
X0051780Y0015120D01*
X0051771Y0015179D01*
X0051766Y0015240D01*
X0051764Y0015300D01*
X0071264Y0020800D02*
X0071264Y0037800D01*
X0071266Y0037860D01*
X0071271Y0037921D01*
X0071280Y0037980D01*
X0071293Y0038039D01*
X0071309Y0038098D01*
X0071329Y0038155D01*
X0071352Y0038210D01*
X0071379Y0038265D01*
X0071408Y0038317D01*
X0071441Y0038368D01*
X0071477Y0038417D01*
X0071515Y0038463D01*
X0071557Y0038507D01*
X0071601Y0038549D01*
X0071647Y0038587D01*
X0071696Y0038623D01*
X0071747Y0038656D01*
X0071799Y0038685D01*
X0071854Y0038712D01*
X0071909Y0038735D01*
X0071966Y0038755D01*
X0072025Y0038771D01*
X0072084Y0038784D01*
X0072143Y0038793D01*
X0072204Y0038798D01*
X0072264Y0038800D01*
X0080264Y0038800D01*
X0080324Y0038798D01*
X0080385Y0038793D01*
X0080444Y0038784D01*
X0080503Y0038771D01*
X0080562Y0038755D01*
X0080619Y0038735D01*
X0080674Y0038712D01*
X0080729Y0038685D01*
X0080781Y0038656D01*
X0080832Y0038623D01*
X0080881Y0038587D01*
X0080927Y0038549D01*
X0080971Y0038507D01*
X0081013Y0038463D01*
X0081051Y0038417D01*
X0081087Y0038368D01*
X0081120Y0038317D01*
X0081149Y0038265D01*
X0081176Y0038210D01*
X0081199Y0038155D01*
X0081219Y0038098D01*
X0081235Y0038039D01*
X0081248Y0037980D01*
X0081257Y0037921D01*
X0081262Y0037860D01*
X0081264Y0037800D01*
X0081264Y0020800D01*
X0081262Y0020740D01*
X0081257Y0020679D01*
X0081248Y0020620D01*
X0081235Y0020561D01*
X0081219Y0020502D01*
X0081199Y0020445D01*
X0081176Y0020390D01*
X0081149Y0020335D01*
X0081120Y0020283D01*
X0081087Y0020232D01*
X0081051Y0020183D01*
X0081013Y0020137D01*
X0080971Y0020093D01*
X0080927Y0020051D01*
X0080881Y0020013D01*
X0080832Y0019977D01*
X0080781Y0019944D01*
X0080729Y0019915D01*
X0080674Y0019888D01*
X0080619Y0019865D01*
X0080562Y0019845D01*
X0080503Y0019829D01*
X0080444Y0019816D01*
X0080385Y0019807D01*
X0080324Y0019802D01*
X0080264Y0019800D01*
X0072264Y0019800D01*
X0072204Y0019802D01*
X0072143Y0019807D01*
X0072084Y0019816D01*
X0072025Y0019829D01*
X0071966Y0019845D01*
X0071909Y0019865D01*
X0071854Y0019888D01*
X0071799Y0019915D01*
X0071747Y0019944D01*
X0071696Y0019977D01*
X0071647Y0020013D01*
X0071601Y0020051D01*
X0071557Y0020093D01*
X0071515Y0020137D01*
X0071477Y0020183D01*
X0071441Y0020232D01*
X0071408Y0020283D01*
X0071379Y0020335D01*
X0071352Y0020390D01*
X0071329Y0020445D01*
X0071309Y0020502D01*
X0071293Y0020561D01*
X0071280Y0020620D01*
X0071271Y0020679D01*
X0071266Y0020740D01*
X0071264Y0020800D01*
X0076264Y0027800D02*
X0076264Y0028300D01*
X0076264Y0030300D02*
X0076264Y0030800D01*
X0093764Y0012800D02*
X0093764Y0005800D01*
X0093766Y0005740D01*
X0093771Y0005679D01*
X0093780Y0005620D01*
X0093793Y0005561D01*
X0093809Y0005502D01*
X0093829Y0005445D01*
X0093852Y0005390D01*
X0093879Y0005335D01*
X0093908Y0005283D01*
X0093941Y0005232D01*
X0093977Y0005183D01*
X0094015Y0005137D01*
X0094057Y0005093D01*
X0094101Y0005051D01*
X0094147Y0005013D01*
X0094196Y0004977D01*
X0094247Y0004944D01*
X0094299Y0004915D01*
X0094354Y0004888D01*
X0094409Y0004865D01*
X0094466Y0004845D01*
X0094525Y0004829D01*
X0094584Y0004816D01*
X0094643Y0004807D01*
X0094704Y0004802D01*
X0094764Y0004800D01*
X0096264Y0004800D01*
X0096764Y0005300D01*
X0115764Y0005300D01*
X0116264Y0004800D01*
X0117764Y0004800D01*
X0117824Y0004802D01*
X0117885Y0004807D01*
X0117944Y0004816D01*
X0118003Y0004829D01*
X0118062Y0004845D01*
X0118119Y0004865D01*
X0118174Y0004888D01*
X0118229Y0004915D01*
X0118281Y0004944D01*
X0118332Y0004977D01*
X0118381Y0005013D01*
X0118427Y0005051D01*
X0118471Y0005093D01*
X0118513Y0005137D01*
X0118551Y0005183D01*
X0118587Y0005232D01*
X0118620Y0005283D01*
X0118649Y0005335D01*
X0118676Y0005390D01*
X0118699Y0005445D01*
X0118719Y0005502D01*
X0118735Y0005561D01*
X0118748Y0005620D01*
X0118757Y0005679D01*
X0118762Y0005740D01*
X0118764Y0005800D01*
X0118764Y0012800D01*
X0118762Y0012860D01*
X0118757Y0012921D01*
X0118748Y0012980D01*
X0118735Y0013039D01*
X0118719Y0013098D01*
X0118699Y0013155D01*
X0118676Y0013210D01*
X0118649Y0013265D01*
X0118620Y0013317D01*
X0118587Y0013368D01*
X0118551Y0013417D01*
X0118513Y0013463D01*
X0118471Y0013507D01*
X0118427Y0013549D01*
X0118381Y0013587D01*
X0118332Y0013623D01*
X0118281Y0013656D01*
X0118229Y0013685D01*
X0118174Y0013712D01*
X0118119Y0013735D01*
X0118062Y0013755D01*
X0118003Y0013771D01*
X0117944Y0013784D01*
X0117885Y0013793D01*
X0117824Y0013798D01*
X0117764Y0013800D01*
X0116264Y0013800D01*
X0115764Y0013300D01*
X0096764Y0013300D01*
X0096264Y0013800D01*
X0094764Y0013800D01*
X0094704Y0013798D01*
X0094643Y0013793D01*
X0094584Y0013784D01*
X0094525Y0013771D01*
X0094466Y0013755D01*
X0094409Y0013735D01*
X0094354Y0013712D01*
X0094299Y0013685D01*
X0094247Y0013656D01*
X0094196Y0013623D01*
X0094147Y0013587D01*
X0094101Y0013549D01*
X0094057Y0013507D01*
X0094015Y0013463D01*
X0093977Y0013417D01*
X0093941Y0013368D01*
X0093908Y0013317D01*
X0093879Y0013265D01*
X0093852Y0013210D01*
X0093829Y0013155D01*
X0093809Y0013098D01*
X0093793Y0013039D01*
X0093780Y0012980D01*
X0093771Y0012921D01*
X0093766Y0012860D01*
X0093764Y0012800D01*
X0096674Y0022666D02*
X0119674Y0022666D01*
X0119674Y0162666D01*
X0112174Y0162666D01*
X0112172Y0162540D01*
X0112166Y0162415D01*
X0112156Y0162290D01*
X0112142Y0162165D01*
X0112125Y0162040D01*
X0112103Y0161916D01*
X0112078Y0161793D01*
X0112048Y0161671D01*
X0112015Y0161550D01*
X0111978Y0161430D01*
X0111938Y0161311D01*
X0111893Y0161194D01*
X0111845Y0161077D01*
X0111793Y0160963D01*
X0111738Y0160850D01*
X0111679Y0160739D01*
X0111617Y0160630D01*
X0111551Y0160523D01*
X0111482Y0160418D01*
X0111410Y0160315D01*
X0111335Y0160214D01*
X0111256Y0160116D01*
X0111174Y0160021D01*
X0111090Y0159928D01*
X0111002Y0159838D01*
X0110912Y0159750D01*
X0110819Y0159666D01*
X0110724Y0159584D01*
X0110626Y0159505D01*
X0110525Y0159430D01*
X0110422Y0159358D01*
X0110317Y0159289D01*
X0110210Y0159223D01*
X0110101Y0159161D01*
X0109990Y0159102D01*
X0109877Y0159047D01*
X0109763Y0158995D01*
X0109646Y0158947D01*
X0109529Y0158902D01*
X0109410Y0158862D01*
X0109290Y0158825D01*
X0109169Y0158792D01*
X0109047Y0158762D01*
X0108924Y0158737D01*
X0108800Y0158715D01*
X0108675Y0158698D01*
X0108550Y0158684D01*
X0108425Y0158674D01*
X0108300Y0158668D01*
X0108174Y0158666D01*
X0108048Y0158668D01*
X0107923Y0158674D01*
X0107798Y0158684D01*
X0107673Y0158698D01*
X0107548Y0158715D01*
X0107424Y0158737D01*
X0107301Y0158762D01*
X0107179Y0158792D01*
X0107058Y0158825D01*
X0106938Y0158862D01*
X0106819Y0158902D01*
X0106702Y0158947D01*
X0106585Y0158995D01*
X0106471Y0159047D01*
X0106358Y0159102D01*
X0106247Y0159161D01*
X0106138Y0159223D01*
X0106031Y0159289D01*
X0105926Y0159358D01*
X0105823Y0159430D01*
X0105722Y0159505D01*
X0105624Y0159584D01*
X0105529Y0159666D01*
X0105436Y0159750D01*
X0105346Y0159838D01*
X0105258Y0159928D01*
X0105174Y0160021D01*
X0105092Y0160116D01*
X0105013Y0160214D01*
X0104938Y0160315D01*
X0104866Y0160418D01*
X0104797Y0160523D01*
X0104731Y0160630D01*
X0104669Y0160739D01*
X0104610Y0160850D01*
X0104555Y0160963D01*
X0104503Y0161077D01*
X0104455Y0161194D01*
X0104410Y0161311D01*
X0104370Y0161430D01*
X0104333Y0161550D01*
X0104300Y0161671D01*
X0104270Y0161793D01*
X0104245Y0161916D01*
X0104223Y0162040D01*
X0104206Y0162165D01*
X0104192Y0162290D01*
X0104182Y0162415D01*
X0104176Y0162540D01*
X0104174Y0162666D01*
X0096674Y0162666D01*
X0096674Y0022666D01*
X0143764Y0017800D02*
X0143916Y0017798D01*
X0144067Y0017792D01*
X0144218Y0017783D01*
X0144370Y0017769D01*
X0144520Y0017752D01*
X0144670Y0017731D01*
X0144820Y0017706D01*
X0144969Y0017678D01*
X0145117Y0017645D01*
X0145264Y0017609D01*
X0145411Y0017570D01*
X0145556Y0017526D01*
X0145700Y0017479D01*
X0145843Y0017428D01*
X0145984Y0017374D01*
X0146125Y0017316D01*
X0146263Y0017255D01*
X0146400Y0017190D01*
X0146536Y0017121D01*
X0146669Y0017050D01*
X0146801Y0016975D01*
X0146931Y0016896D01*
X0147058Y0016815D01*
X0147184Y0016730D01*
X0147308Y0016642D01*
X0147429Y0016551D01*
X0147548Y0016457D01*
X0147664Y0016359D01*
X0147778Y0016259D01*
X0147890Y0016157D01*
X0147998Y0016051D01*
X0148104Y0015943D01*
X0148208Y0015832D01*
X0148308Y0015718D01*
X0148406Y0015602D01*
X0148500Y0015483D01*
X0143764Y0005800D02*
X0143610Y0005802D01*
X0143456Y0005808D01*
X0143302Y0005818D01*
X0143148Y0005832D01*
X0142995Y0005849D01*
X0142843Y0005871D01*
X0142691Y0005897D01*
X0142539Y0005926D01*
X0142389Y0005960D01*
X0142239Y0005997D01*
X0142091Y0006038D01*
X0141943Y0006083D01*
X0141797Y0006132D01*
X0141652Y0006184D01*
X0141509Y0006240D01*
X0141366Y0006300D01*
X0141226Y0006363D01*
X0141087Y0006430D01*
X0140950Y0006501D01*
X0140815Y0006575D01*
X0140682Y0006652D01*
X0140550Y0006733D01*
X0140421Y0006817D01*
X0140294Y0006905D01*
X0140170Y0006996D01*
X0140048Y0007089D01*
X0139928Y0007187D01*
X0139811Y0007287D01*
X0139696Y0007390D01*
X0139584Y0007496D01*
X0139475Y0007604D01*
X0139369Y0007716D01*
X0139265Y0007830D01*
X0139165Y0007947D01*
X0139067Y0008066D01*
X0138973Y0008188D01*
X0138882Y0008313D01*
X0143764Y0005800D02*
X0143914Y0005802D01*
X0144065Y0005808D01*
X0144215Y0005817D01*
X0144364Y0005830D01*
X0144514Y0005847D01*
X0144663Y0005868D01*
X0144811Y0005892D01*
X0144959Y0005920D01*
X0145106Y0005952D01*
X0145252Y0005987D01*
X0145397Y0006027D01*
X0145541Y0006069D01*
X0145684Y0006116D01*
X0145826Y0006166D01*
X0145967Y0006219D01*
X0146106Y0006276D01*
X0146244Y0006336D01*
X0146380Y0006400D01*
X0146514Y0006467D01*
X0146647Y0006538D01*
X0146778Y0006612D01*
X0146907Y0006689D01*
X0147034Y0006770D01*
X0147159Y0006853D01*
X0147282Y0006940D01*
X0147403Y0007029D01*
X0147521Y0007122D01*
X0147637Y0007218D01*
X0147751Y0007316D01*
X0147862Y0007417D01*
X0147971Y0007522D01*
X0148076Y0007628D01*
X0148180Y0007738D01*
X0148280Y0007850D01*
X0148378Y0007964D01*
X0148472Y0008081D01*
X0148564Y0008200D01*
X0143764Y0017800D02*
X0143612Y0017798D01*
X0143461Y0017792D01*
X0143310Y0017783D01*
X0143158Y0017769D01*
X0143008Y0017752D01*
X0142858Y0017731D01*
X0142708Y0017706D01*
X0142559Y0017678D01*
X0142411Y0017645D01*
X0142264Y0017609D01*
X0142117Y0017570D01*
X0141972Y0017526D01*
X0141828Y0017479D01*
X0141685Y0017428D01*
X0141544Y0017374D01*
X0141403Y0017316D01*
X0141265Y0017255D01*
X0141128Y0017190D01*
X0140992Y0017121D01*
X0140859Y0017050D01*
X0140727Y0016975D01*
X0140597Y0016896D01*
X0140470Y0016815D01*
X0140344Y0016730D01*
X0140220Y0016642D01*
X0140099Y0016551D01*
X0139980Y0016457D01*
X0139864Y0016359D01*
X0139750Y0016259D01*
X0139638Y0016157D01*
X0139530Y0016051D01*
X0139424Y0015943D01*
X0139320Y0015832D01*
X0139220Y0015718D01*
X0139122Y0015602D01*
X0139028Y0015483D01*
X0154064Y0018168D02*
X0155132Y0017100D01*
X0156199Y0017100D01*
X0157267Y0018168D01*
X0157267Y0023505D01*
X0156199Y0023505D02*
X0158335Y0023505D01*
X0160510Y0020303D02*
X0160510Y0018168D01*
X0161577Y0017100D01*
X0163713Y0017100D01*
X0164780Y0018168D01*
X0164780Y0020303D01*
X0163713Y0021370D01*
X0161577Y0021370D01*
X0160510Y0020303D01*
X0166955Y0020303D02*
X0166955Y0018168D01*
X0168023Y0017100D01*
X0170158Y0017100D01*
X0171226Y0019235D02*
X0166955Y0019235D01*
X0166955Y0020303D02*
X0168023Y0021370D01*
X0170158Y0021370D01*
X0171226Y0020303D01*
X0171226Y0019235D01*
X0179846Y0020303D02*
X0184117Y0020303D01*
X0186292Y0018168D02*
X0187359Y0019235D01*
X0190562Y0019235D01*
X0190562Y0020303D02*
X0190562Y0017100D01*
X0187359Y0017100D01*
X0186292Y0018168D01*
X0184117Y0017100D02*
X0184117Y0023505D01*
X0187359Y0021370D02*
X0189495Y0021370D01*
X0190562Y0020303D01*
X0192737Y0021370D02*
X0192737Y0017100D01*
X0192737Y0019235D02*
X0194872Y0021370D01*
X0195940Y0021370D01*
X0198109Y0021370D02*
X0198109Y0017100D01*
X0198109Y0019235D02*
X0200244Y0021370D01*
X0201311Y0021370D01*
X0203480Y0021370D02*
X0204547Y0021370D01*
X0204547Y0017100D01*
X0203480Y0017100D02*
X0205615Y0017100D01*
X0207777Y0017100D02*
X0210980Y0017100D01*
X0212047Y0018168D01*
X0210980Y0019235D01*
X0208844Y0019235D01*
X0207777Y0020303D01*
X0208844Y0021370D01*
X0212047Y0021370D01*
X0204547Y0023505D02*
X0204547Y0024573D01*
X0179846Y0023505D02*
X0179846Y0017100D01*
X0150288Y0067485D02*
X0135788Y0067485D01*
X0132788Y0070485D01*
X0132788Y0082485D01*
X0135788Y0085485D01*
X0150288Y0085485D01*
X0150364Y0085483D01*
X0150440Y0085477D01*
X0150515Y0085468D01*
X0150590Y0085454D01*
X0150664Y0085437D01*
X0150737Y0085416D01*
X0150809Y0085392D01*
X0150880Y0085363D01*
X0150949Y0085332D01*
X0151016Y0085297D01*
X0151081Y0085258D01*
X0151145Y0085216D01*
X0151206Y0085171D01*
X0151265Y0085123D01*
X0151321Y0085072D01*
X0151375Y0085018D01*
X0151426Y0084962D01*
X0151474Y0084903D01*
X0151519Y0084842D01*
X0151561Y0084778D01*
X0151600Y0084713D01*
X0151635Y0084646D01*
X0151666Y0084577D01*
X0151695Y0084506D01*
X0151719Y0084434D01*
X0151740Y0084361D01*
X0151757Y0084287D01*
X0151771Y0084212D01*
X0151780Y0084137D01*
X0151786Y0084061D01*
X0151788Y0083985D01*
X0151788Y0068985D01*
X0151786Y0068909D01*
X0151780Y0068833D01*
X0151771Y0068758D01*
X0151757Y0068683D01*
X0151740Y0068609D01*
X0151719Y0068536D01*
X0151695Y0068464D01*
X0151666Y0068393D01*
X0151635Y0068324D01*
X0151600Y0068257D01*
X0151561Y0068192D01*
X0151519Y0068128D01*
X0151474Y0068067D01*
X0151426Y0068008D01*
X0151375Y0067952D01*
X0151321Y0067898D01*
X0151265Y0067847D01*
X0151206Y0067799D01*
X0151145Y0067754D01*
X0151081Y0067712D01*
X0151016Y0067673D01*
X0150949Y0067638D01*
X0150880Y0067607D01*
X0150809Y0067578D01*
X0150737Y0067554D01*
X0150664Y0067533D01*
X0150590Y0067516D01*
X0150515Y0067502D01*
X0150440Y0067493D01*
X0150364Y0067487D01*
X0150288Y0067485D01*
X0136588Y0081885D02*
X0133988Y0081885D01*
X0135288Y0083085D02*
X0135288Y0080585D01*
X0134764Y0142300D02*
X0142764Y0142300D01*
X0142824Y0142302D01*
X0142885Y0142307D01*
X0142944Y0142316D01*
X0143003Y0142329D01*
X0143062Y0142345D01*
X0143119Y0142365D01*
X0143174Y0142388D01*
X0143229Y0142415D01*
X0143281Y0142444D01*
X0143332Y0142477D01*
X0143381Y0142513D01*
X0143427Y0142551D01*
X0143471Y0142593D01*
X0143513Y0142637D01*
X0143551Y0142683D01*
X0143587Y0142732D01*
X0143620Y0142783D01*
X0143649Y0142835D01*
X0143676Y0142890D01*
X0143699Y0142945D01*
X0143719Y0143002D01*
X0143735Y0143061D01*
X0143748Y0143120D01*
X0143757Y0143179D01*
X0143762Y0143240D01*
X0143764Y0143300D01*
X0143764Y0160300D01*
X0143762Y0160360D01*
X0143757Y0160421D01*
X0143748Y0160480D01*
X0143735Y0160539D01*
X0143719Y0160598D01*
X0143699Y0160655D01*
X0143676Y0160710D01*
X0143649Y0160765D01*
X0143620Y0160817D01*
X0143587Y0160868D01*
X0143551Y0160917D01*
X0143513Y0160963D01*
X0143471Y0161007D01*
X0143427Y0161049D01*
X0143381Y0161087D01*
X0143332Y0161123D01*
X0143281Y0161156D01*
X0143229Y0161185D01*
X0143174Y0161212D01*
X0143119Y0161235D01*
X0143062Y0161255D01*
X0143003Y0161271D01*
X0142944Y0161284D01*
X0142885Y0161293D01*
X0142824Y0161298D01*
X0142764Y0161300D01*
X0134764Y0161300D01*
X0134704Y0161298D01*
X0134643Y0161293D01*
X0134584Y0161284D01*
X0134525Y0161271D01*
X0134466Y0161255D01*
X0134409Y0161235D01*
X0134354Y0161212D01*
X0134299Y0161185D01*
X0134247Y0161156D01*
X0134196Y0161123D01*
X0134147Y0161087D01*
X0134101Y0161049D01*
X0134057Y0161007D01*
X0134015Y0160963D01*
X0133977Y0160917D01*
X0133941Y0160868D01*
X0133908Y0160817D01*
X0133879Y0160765D01*
X0133852Y0160710D01*
X0133829Y0160655D01*
X0133809Y0160598D01*
X0133793Y0160539D01*
X0133780Y0160480D01*
X0133771Y0160421D01*
X0133766Y0160360D01*
X0133764Y0160300D01*
X0133764Y0143300D01*
X0133766Y0143240D01*
X0133771Y0143179D01*
X0133780Y0143120D01*
X0133793Y0143061D01*
X0133809Y0143002D01*
X0133829Y0142945D01*
X0133852Y0142890D01*
X0133879Y0142835D01*
X0133908Y0142783D01*
X0133941Y0142732D01*
X0133977Y0142683D01*
X0134015Y0142637D01*
X0134057Y0142593D01*
X0134101Y0142551D01*
X0134147Y0142513D01*
X0134196Y0142477D01*
X0134247Y0142444D01*
X0134299Y0142415D01*
X0134354Y0142388D01*
X0134409Y0142365D01*
X0134466Y0142345D01*
X0134525Y0142329D01*
X0134584Y0142316D01*
X0134643Y0142307D01*
X0134704Y0142302D01*
X0134764Y0142300D01*
X0138764Y0150300D02*
X0138764Y0150800D01*
X0138764Y0152800D02*
X0138764Y0153300D01*
X0156264Y0158300D02*
X0156264Y0165300D01*
X0156266Y0165360D01*
X0156271Y0165421D01*
X0156280Y0165480D01*
X0156293Y0165539D01*
X0156309Y0165598D01*
X0156329Y0165655D01*
X0156352Y0165710D01*
X0156379Y0165765D01*
X0156408Y0165817D01*
X0156441Y0165868D01*
X0156477Y0165917D01*
X0156515Y0165963D01*
X0156557Y0166007D01*
X0156601Y0166049D01*
X0156647Y0166087D01*
X0156696Y0166123D01*
X0156747Y0166156D01*
X0156799Y0166185D01*
X0156854Y0166212D01*
X0156909Y0166235D01*
X0156966Y0166255D01*
X0157025Y0166271D01*
X0157084Y0166284D01*
X0157143Y0166293D01*
X0157204Y0166298D01*
X0157264Y0166300D01*
X0158764Y0166300D01*
X0159264Y0165800D01*
X0178264Y0165800D01*
X0178764Y0166300D01*
X0180264Y0166300D01*
X0180324Y0166298D01*
X0180385Y0166293D01*
X0180444Y0166284D01*
X0180503Y0166271D01*
X0180562Y0166255D01*
X0180619Y0166235D01*
X0180674Y0166212D01*
X0180729Y0166185D01*
X0180781Y0166156D01*
X0180832Y0166123D01*
X0180881Y0166087D01*
X0180927Y0166049D01*
X0180971Y0166007D01*
X0181013Y0165963D01*
X0181051Y0165917D01*
X0181087Y0165868D01*
X0181120Y0165817D01*
X0181149Y0165765D01*
X0181176Y0165710D01*
X0181199Y0165655D01*
X0181219Y0165598D01*
X0181235Y0165539D01*
X0181248Y0165480D01*
X0181257Y0165421D01*
X0181262Y0165360D01*
X0181264Y0165300D01*
X0181264Y0158300D01*
X0181262Y0158240D01*
X0181257Y0158179D01*
X0181248Y0158120D01*
X0181235Y0158061D01*
X0181219Y0158002D01*
X0181199Y0157945D01*
X0181176Y0157890D01*
X0181149Y0157835D01*
X0181120Y0157783D01*
X0181087Y0157732D01*
X0181051Y0157683D01*
X0181013Y0157637D01*
X0180971Y0157593D01*
X0180927Y0157551D01*
X0180881Y0157513D01*
X0180832Y0157477D01*
X0180781Y0157444D01*
X0180729Y0157415D01*
X0180674Y0157388D01*
X0180619Y0157365D01*
X0180562Y0157345D01*
X0180503Y0157329D01*
X0180444Y0157316D01*
X0180385Y0157307D01*
X0180324Y0157302D01*
X0180264Y0157300D01*
X0178764Y0157300D01*
X0178264Y0157800D01*
X0159264Y0157800D01*
X0158764Y0157300D01*
X0157264Y0157300D01*
X0157204Y0157302D01*
X0157143Y0157307D01*
X0157084Y0157316D01*
X0157025Y0157329D01*
X0156966Y0157345D01*
X0156909Y0157365D01*
X0156854Y0157388D01*
X0156799Y0157415D01*
X0156747Y0157444D01*
X0156696Y0157477D01*
X0156647Y0157513D01*
X0156601Y0157551D01*
X0156557Y0157593D01*
X0156515Y0157637D01*
X0156477Y0157683D01*
X0156441Y0157732D01*
X0156408Y0157783D01*
X0156379Y0157835D01*
X0156352Y0157890D01*
X0156329Y0157945D01*
X0156309Y0158002D01*
X0156293Y0158061D01*
X0156280Y0158120D01*
X0156271Y0158179D01*
X0156266Y0158240D01*
X0156264Y0158300D01*
X0152764Y0177300D02*
X0144764Y0177300D01*
X0144704Y0177302D01*
X0144643Y0177307D01*
X0144584Y0177316D01*
X0144525Y0177329D01*
X0144466Y0177345D01*
X0144409Y0177365D01*
X0144354Y0177388D01*
X0144299Y0177415D01*
X0144247Y0177444D01*
X0144196Y0177477D01*
X0144147Y0177513D01*
X0144101Y0177551D01*
X0144057Y0177593D01*
X0144015Y0177637D01*
X0143977Y0177683D01*
X0143941Y0177732D01*
X0143908Y0177783D01*
X0143879Y0177835D01*
X0143852Y0177890D01*
X0143829Y0177945D01*
X0143809Y0178002D01*
X0143793Y0178061D01*
X0143780Y0178120D01*
X0143771Y0178179D01*
X0143766Y0178240D01*
X0143764Y0178300D01*
X0143764Y0195300D01*
X0143766Y0195360D01*
X0143771Y0195421D01*
X0143780Y0195480D01*
X0143793Y0195539D01*
X0143809Y0195598D01*
X0143829Y0195655D01*
X0143852Y0195710D01*
X0143879Y0195765D01*
X0143908Y0195817D01*
X0143941Y0195868D01*
X0143977Y0195917D01*
X0144015Y0195963D01*
X0144057Y0196007D01*
X0144101Y0196049D01*
X0144147Y0196087D01*
X0144196Y0196123D01*
X0144247Y0196156D01*
X0144299Y0196185D01*
X0144354Y0196212D01*
X0144409Y0196235D01*
X0144466Y0196255D01*
X0144525Y0196271D01*
X0144584Y0196284D01*
X0144643Y0196293D01*
X0144704Y0196298D01*
X0144764Y0196300D01*
X0152764Y0196300D01*
X0152824Y0196298D01*
X0152885Y0196293D01*
X0152944Y0196284D01*
X0153003Y0196271D01*
X0153062Y0196255D01*
X0153119Y0196235D01*
X0153174Y0196212D01*
X0153229Y0196185D01*
X0153281Y0196156D01*
X0153332Y0196123D01*
X0153381Y0196087D01*
X0153427Y0196049D01*
X0153471Y0196007D01*
X0153513Y0195963D01*
X0153551Y0195917D01*
X0153587Y0195868D01*
X0153620Y0195817D01*
X0153649Y0195765D01*
X0153676Y0195710D01*
X0153699Y0195655D01*
X0153719Y0195598D01*
X0153735Y0195539D01*
X0153748Y0195480D01*
X0153757Y0195421D01*
X0153762Y0195360D01*
X0153764Y0195300D01*
X0153764Y0178300D01*
X0153762Y0178240D01*
X0153757Y0178179D01*
X0153748Y0178120D01*
X0153735Y0178061D01*
X0153719Y0178002D01*
X0153699Y0177945D01*
X0153676Y0177890D01*
X0153649Y0177835D01*
X0153620Y0177783D01*
X0153587Y0177732D01*
X0153551Y0177683D01*
X0153513Y0177637D01*
X0153471Y0177593D01*
X0153427Y0177551D01*
X0153381Y0177513D01*
X0153332Y0177477D01*
X0153281Y0177444D01*
X0153229Y0177415D01*
X0153174Y0177388D01*
X0153119Y0177365D01*
X0153062Y0177345D01*
X0153003Y0177329D01*
X0152944Y0177316D01*
X0152885Y0177307D01*
X0152824Y0177302D01*
X0152764Y0177300D01*
X0148764Y0185300D02*
X0148764Y0185800D01*
X0148764Y0187800D02*
X0148764Y0188300D01*
X0142764Y0193300D02*
X0139764Y0196300D01*
X0127764Y0196300D01*
X0124764Y0193300D01*
X0124764Y0178800D01*
X0124766Y0178724D01*
X0124772Y0178648D01*
X0124781Y0178573D01*
X0124795Y0178498D01*
X0124812Y0178424D01*
X0124833Y0178351D01*
X0124857Y0178279D01*
X0124886Y0178208D01*
X0124917Y0178139D01*
X0124952Y0178072D01*
X0124991Y0178007D01*
X0125033Y0177943D01*
X0125078Y0177882D01*
X0125126Y0177823D01*
X0125177Y0177767D01*
X0125231Y0177713D01*
X0125287Y0177662D01*
X0125346Y0177614D01*
X0125407Y0177569D01*
X0125471Y0177527D01*
X0125536Y0177488D01*
X0125603Y0177453D01*
X0125672Y0177422D01*
X0125743Y0177393D01*
X0125815Y0177369D01*
X0125888Y0177348D01*
X0125962Y0177331D01*
X0126037Y0177317D01*
X0126112Y0177308D01*
X0126188Y0177302D01*
X0126264Y0177300D01*
X0141264Y0177300D01*
X0141340Y0177302D01*
X0141416Y0177308D01*
X0141491Y0177317D01*
X0141566Y0177331D01*
X0141640Y0177348D01*
X0141713Y0177369D01*
X0141785Y0177393D01*
X0141856Y0177422D01*
X0141925Y0177453D01*
X0141992Y0177488D01*
X0142057Y0177527D01*
X0142121Y0177569D01*
X0142182Y0177614D01*
X0142241Y0177662D01*
X0142297Y0177713D01*
X0142351Y0177767D01*
X0142402Y0177823D01*
X0142450Y0177882D01*
X0142495Y0177943D01*
X0142537Y0178007D01*
X0142576Y0178072D01*
X0142611Y0178139D01*
X0142642Y0178208D01*
X0142671Y0178279D01*
X0142695Y0178351D01*
X0142716Y0178424D01*
X0142733Y0178498D01*
X0142747Y0178573D01*
X0142756Y0178648D01*
X0142762Y0178724D01*
X0142764Y0178800D01*
X0142764Y0193300D01*
X0140364Y0193800D02*
X0137864Y0193800D01*
X0139164Y0192500D02*
X0139164Y0195100D01*
X0088764Y0182800D02*
X0088764Y0165800D01*
X0088762Y0165740D01*
X0088757Y0165679D01*
X0088748Y0165620D01*
X0088735Y0165561D01*
X0088719Y0165502D01*
X0088699Y0165445D01*
X0088676Y0165390D01*
X0088649Y0165335D01*
X0088620Y0165283D01*
X0088587Y0165232D01*
X0088551Y0165183D01*
X0088513Y0165137D01*
X0088471Y0165093D01*
X0088427Y0165051D01*
X0088381Y0165013D01*
X0088332Y0164977D01*
X0088281Y0164944D01*
X0088229Y0164915D01*
X0088174Y0164888D01*
X0088119Y0164865D01*
X0088062Y0164845D01*
X0088003Y0164829D01*
X0087944Y0164816D01*
X0087885Y0164807D01*
X0087824Y0164802D01*
X0087764Y0164800D01*
X0079764Y0164800D01*
X0079704Y0164802D01*
X0079643Y0164807D01*
X0079584Y0164816D01*
X0079525Y0164829D01*
X0079466Y0164845D01*
X0079409Y0164865D01*
X0079354Y0164888D01*
X0079299Y0164915D01*
X0079247Y0164944D01*
X0079196Y0164977D01*
X0079147Y0165013D01*
X0079101Y0165051D01*
X0079057Y0165093D01*
X0079015Y0165137D01*
X0078977Y0165183D01*
X0078941Y0165232D01*
X0078908Y0165283D01*
X0078879Y0165335D01*
X0078852Y0165390D01*
X0078829Y0165445D01*
X0078809Y0165502D01*
X0078793Y0165561D01*
X0078780Y0165620D01*
X0078771Y0165679D01*
X0078766Y0165740D01*
X0078764Y0165800D01*
X0078764Y0182800D01*
X0078766Y0182860D01*
X0078771Y0182921D01*
X0078780Y0182980D01*
X0078793Y0183039D01*
X0078809Y0183098D01*
X0078829Y0183155D01*
X0078852Y0183210D01*
X0078879Y0183265D01*
X0078908Y0183317D01*
X0078941Y0183368D01*
X0078977Y0183417D01*
X0079015Y0183463D01*
X0079057Y0183507D01*
X0079101Y0183549D01*
X0079147Y0183587D01*
X0079196Y0183623D01*
X0079247Y0183656D01*
X0079299Y0183685D01*
X0079354Y0183712D01*
X0079409Y0183735D01*
X0079466Y0183755D01*
X0079525Y0183771D01*
X0079584Y0183784D01*
X0079643Y0183793D01*
X0079704Y0183798D01*
X0079764Y0183800D01*
X0087764Y0183800D01*
X0087824Y0183798D01*
X0087885Y0183793D01*
X0087944Y0183784D01*
X0088003Y0183771D01*
X0088062Y0183755D01*
X0088119Y0183735D01*
X0088174Y0183712D01*
X0088229Y0183685D01*
X0088281Y0183656D01*
X0088332Y0183623D01*
X0088381Y0183587D01*
X0088427Y0183549D01*
X0088471Y0183507D01*
X0088513Y0183463D01*
X0088551Y0183417D01*
X0088587Y0183368D01*
X0088620Y0183317D01*
X0088649Y0183265D01*
X0088676Y0183210D01*
X0088699Y0183155D01*
X0088719Y0183098D01*
X0088735Y0183039D01*
X0088748Y0182980D01*
X0088757Y0182921D01*
X0088762Y0182860D01*
X0088764Y0182800D01*
X0083764Y0175800D02*
X0083764Y0175300D01*
X0083764Y0173300D02*
X0083764Y0172800D01*
X0018764Y0045800D02*
X0018612Y0045802D01*
X0018461Y0045808D01*
X0018310Y0045817D01*
X0018158Y0045831D01*
X0018008Y0045848D01*
X0017858Y0045869D01*
X0017708Y0045894D01*
X0017559Y0045922D01*
X0017411Y0045955D01*
X0017264Y0045991D01*
X0017117Y0046030D01*
X0016972Y0046074D01*
X0016828Y0046121D01*
X0016685Y0046172D01*
X0016544Y0046226D01*
X0016403Y0046284D01*
X0016265Y0046345D01*
X0016128Y0046410D01*
X0015992Y0046479D01*
X0015859Y0046550D01*
X0015727Y0046625D01*
X0015597Y0046704D01*
X0015470Y0046785D01*
X0015344Y0046870D01*
X0015220Y0046958D01*
X0015099Y0047049D01*
X0014980Y0047143D01*
X0014864Y0047241D01*
X0014750Y0047341D01*
X0014638Y0047443D01*
X0014530Y0047549D01*
X0014424Y0047657D01*
X0014320Y0047768D01*
X0014220Y0047882D01*
X0014122Y0047998D01*
X0014028Y0048117D01*
X0018764Y0057800D02*
X0018918Y0057798D01*
X0019072Y0057792D01*
X0019226Y0057782D01*
X0019380Y0057768D01*
X0019533Y0057751D01*
X0019685Y0057729D01*
X0019837Y0057703D01*
X0019989Y0057674D01*
X0020139Y0057640D01*
X0020289Y0057603D01*
X0020437Y0057562D01*
X0020585Y0057517D01*
X0020731Y0057468D01*
X0020876Y0057416D01*
X0021019Y0057360D01*
X0021162Y0057300D01*
X0021302Y0057237D01*
X0021441Y0057170D01*
X0021578Y0057099D01*
X0021713Y0057025D01*
X0021846Y0056948D01*
X0021978Y0056867D01*
X0022107Y0056783D01*
X0022234Y0056695D01*
X0022358Y0056604D01*
X0022480Y0056511D01*
X0022600Y0056413D01*
X0022717Y0056313D01*
X0022832Y0056210D01*
X0022944Y0056104D01*
X0023053Y0055996D01*
X0023159Y0055884D01*
X0023263Y0055770D01*
X0023363Y0055653D01*
X0023461Y0055534D01*
X0023555Y0055412D01*
X0023646Y0055287D01*
X0018764Y0057800D02*
X0018614Y0057798D01*
X0018463Y0057792D01*
X0018313Y0057783D01*
X0018164Y0057770D01*
X0018014Y0057753D01*
X0017865Y0057732D01*
X0017717Y0057708D01*
X0017569Y0057680D01*
X0017422Y0057648D01*
X0017276Y0057613D01*
X0017131Y0057573D01*
X0016987Y0057531D01*
X0016844Y0057484D01*
X0016702Y0057434D01*
X0016561Y0057381D01*
X0016422Y0057324D01*
X0016284Y0057264D01*
X0016148Y0057200D01*
X0016014Y0057133D01*
X0015881Y0057062D01*
X0015750Y0056988D01*
X0015621Y0056911D01*
X0015494Y0056830D01*
X0015369Y0056747D01*
X0015246Y0056660D01*
X0015125Y0056571D01*
X0015007Y0056478D01*
X0014891Y0056382D01*
X0014777Y0056284D01*
X0014666Y0056183D01*
X0014557Y0056078D01*
X0014452Y0055972D01*
X0014348Y0055862D01*
X0014248Y0055750D01*
X0014150Y0055636D01*
X0014056Y0055519D01*
X0013964Y0055400D01*
X0018764Y0045800D02*
X0018916Y0045802D01*
X0019067Y0045808D01*
X0019218Y0045817D01*
X0019370Y0045831D01*
X0019520Y0045848D01*
X0019670Y0045869D01*
X0019820Y0045894D01*
X0019969Y0045922D01*
X0020117Y0045955D01*
X0020264Y0045991D01*
X0020411Y0046030D01*
X0020556Y0046074D01*
X0020700Y0046121D01*
X0020843Y0046172D01*
X0020984Y0046226D01*
X0021125Y0046284D01*
X0021263Y0046345D01*
X0021400Y0046410D01*
X0021536Y0046479D01*
X0021669Y0046550D01*
X0021801Y0046625D01*
X0021931Y0046704D01*
X0022058Y0046785D01*
X0022184Y0046870D01*
X0022308Y0046958D01*
X0022429Y0047049D01*
X0022548Y0047143D01*
X0022664Y0047241D01*
X0022778Y0047341D01*
X0022890Y0047443D01*
X0022998Y0047549D01*
X0023104Y0047657D01*
X0023208Y0047768D01*
X0023308Y0047882D01*
X0023406Y0047998D01*
X0023500Y0048117D01*
D12*
X0018765Y0059800D02*
X0018573Y0059798D01*
X0018381Y0059791D01*
X0018189Y0059779D01*
X0017997Y0059763D01*
X0017806Y0059742D01*
X0017616Y0059717D01*
X0017426Y0059687D01*
X0017237Y0059653D01*
X0017049Y0059614D01*
X0016862Y0059570D01*
X0016676Y0059522D01*
X0016491Y0059470D01*
X0016307Y0059413D01*
X0016125Y0059352D01*
X0015945Y0059286D01*
X0015766Y0059216D01*
X0015588Y0059142D01*
X0015413Y0059064D01*
X0015239Y0058981D01*
X0015068Y0058894D01*
X0014899Y0058804D01*
X0014732Y0058709D01*
X0014567Y0058610D01*
X0014404Y0058507D01*
X0014245Y0058400D01*
X0014087Y0058290D01*
X0013933Y0058176D01*
X0013781Y0058058D01*
X0013632Y0057936D01*
X0013486Y0057811D01*
X0013344Y0057683D01*
X0013204Y0057551D01*
X0013067Y0057416D01*
X0012934Y0057277D01*
X0012804Y0057136D01*
X0012678Y0056991D01*
X0012555Y0056843D01*
X0012436Y0056693D01*
X0012320Y0056539D01*
X0012208Y0056383D01*
X0012100Y0056224D01*
X0011995Y0056063D01*
X0011895Y0055899D01*
X0011799Y0055733D01*
X0011706Y0055565D01*
X0011818Y0047831D02*
X0011917Y0047662D01*
X0012021Y0047496D01*
X0012128Y0047332D01*
X0012239Y0047171D01*
X0012354Y0047013D01*
X0012473Y0046858D01*
X0012596Y0046705D01*
X0012722Y0046556D01*
X0012852Y0046410D01*
X0012986Y0046267D01*
X0013123Y0046127D01*
X0013263Y0045991D01*
X0013407Y0045858D01*
X0013554Y0045729D01*
X0013704Y0045603D01*
X0013857Y0045482D01*
X0014013Y0045363D01*
X0014172Y0045249D01*
X0014333Y0045139D01*
X0014498Y0045033D01*
X0014664Y0044930D01*
X0014834Y0044832D01*
X0015005Y0044738D01*
X0015179Y0044648D01*
X0015355Y0044563D01*
X0015533Y0044481D01*
X0015713Y0044405D01*
X0015895Y0044332D01*
X0016078Y0044264D01*
X0016263Y0044201D01*
X0016450Y0044142D01*
X0016638Y0044088D01*
X0016827Y0044038D01*
X0017017Y0043993D01*
X0017209Y0043953D01*
X0017401Y0043917D01*
X0017594Y0043886D01*
X0017788Y0043860D01*
X0017983Y0043838D01*
X0018178Y0043822D01*
X0018373Y0043810D01*
X0018569Y0043802D01*
X0018764Y0043800D01*
X0018957Y0043802D01*
X0019150Y0043809D01*
X0019342Y0043821D01*
X0019535Y0043837D01*
X0019727Y0043858D01*
X0019918Y0043884D01*
X0020108Y0043914D01*
X0020298Y0043949D01*
X0020487Y0043988D01*
X0020675Y0044032D01*
X0020862Y0044080D01*
X0021048Y0044133D01*
X0021232Y0044190D01*
X0021415Y0044252D01*
X0021596Y0044318D01*
X0021776Y0044389D01*
X0021954Y0044463D01*
X0022130Y0044542D01*
X0022304Y0044626D01*
X0022476Y0044713D01*
X0022646Y0044805D01*
X0022813Y0044901D01*
X0022979Y0045000D01*
X0023142Y0045104D01*
X0023302Y0045211D01*
X0023459Y0045323D01*
X0023614Y0045438D01*
X0023766Y0045557D01*
X0023915Y0045679D01*
X0024062Y0045805D01*
X0024205Y0045935D01*
X0024345Y0046068D01*
X0024481Y0046204D01*
X0024615Y0046344D01*
X0024744Y0046486D01*
X0024871Y0046632D01*
X0024910Y0056922D02*
X0024783Y0057070D01*
X0024653Y0057215D01*
X0024520Y0057356D01*
X0024383Y0057495D01*
X0024243Y0057630D01*
X0024099Y0057761D01*
X0023952Y0057889D01*
X0023803Y0058014D01*
X0023650Y0058135D01*
X0023495Y0058252D01*
X0023336Y0058365D01*
X0023175Y0058474D01*
X0023011Y0058579D01*
X0022845Y0058681D01*
X0022676Y0058778D01*
X0022506Y0058871D01*
X0022332Y0058960D01*
X0022157Y0059045D01*
X0021980Y0059125D01*
X0021801Y0059201D01*
X0021620Y0059273D01*
X0021437Y0059340D01*
X0021253Y0059403D01*
X0021067Y0059461D01*
X0020880Y0059515D01*
X0020692Y0059564D01*
X0020502Y0059609D01*
X0020312Y0059649D01*
X0020120Y0059684D01*
X0019928Y0059715D01*
X0019735Y0059741D01*
X0019541Y0059762D01*
X0019347Y0059779D01*
X0019153Y0059791D01*
X0018959Y0059798D01*
X0018764Y0059800D01*
X0073264Y0030300D02*
X0076264Y0030300D01*
X0079264Y0030300D01*
X0079264Y0028300D02*
X0076264Y0028300D01*
X0073264Y0028300D01*
X0143764Y0003800D02*
X0143956Y0003802D01*
X0144148Y0003809D01*
X0144340Y0003821D01*
X0144532Y0003837D01*
X0144723Y0003858D01*
X0144913Y0003883D01*
X0145103Y0003913D01*
X0145292Y0003947D01*
X0145480Y0003986D01*
X0145667Y0004030D01*
X0145853Y0004078D01*
X0146038Y0004130D01*
X0146222Y0004187D01*
X0146404Y0004248D01*
X0146584Y0004314D01*
X0146763Y0004384D01*
X0146941Y0004458D01*
X0147116Y0004536D01*
X0147290Y0004619D01*
X0147461Y0004706D01*
X0147630Y0004796D01*
X0147797Y0004891D01*
X0147962Y0004990D01*
X0148125Y0005093D01*
X0148284Y0005200D01*
X0148442Y0005310D01*
X0148596Y0005424D01*
X0148748Y0005542D01*
X0148897Y0005664D01*
X0149043Y0005789D01*
X0149185Y0005917D01*
X0149325Y0006049D01*
X0149462Y0006184D01*
X0149595Y0006323D01*
X0149725Y0006464D01*
X0149851Y0006609D01*
X0149974Y0006757D01*
X0150093Y0006907D01*
X0150209Y0007061D01*
X0150321Y0007217D01*
X0150429Y0007376D01*
X0150534Y0007537D01*
X0150634Y0007701D01*
X0150730Y0007867D01*
X0150823Y0008035D01*
X0150711Y0015769D02*
X0150612Y0015938D01*
X0150508Y0016104D01*
X0150401Y0016268D01*
X0150290Y0016429D01*
X0150175Y0016587D01*
X0150056Y0016742D01*
X0149933Y0016895D01*
X0149807Y0017044D01*
X0149677Y0017190D01*
X0149543Y0017333D01*
X0149406Y0017473D01*
X0149266Y0017609D01*
X0149122Y0017742D01*
X0148975Y0017871D01*
X0148825Y0017997D01*
X0148672Y0018118D01*
X0148516Y0018237D01*
X0148357Y0018351D01*
X0148196Y0018461D01*
X0148031Y0018567D01*
X0147865Y0018670D01*
X0147695Y0018768D01*
X0147524Y0018862D01*
X0147350Y0018952D01*
X0147174Y0019037D01*
X0146996Y0019119D01*
X0146816Y0019195D01*
X0146634Y0019268D01*
X0146451Y0019336D01*
X0146266Y0019399D01*
X0146079Y0019458D01*
X0145891Y0019512D01*
X0145702Y0019562D01*
X0145512Y0019607D01*
X0145320Y0019647D01*
X0145128Y0019683D01*
X0144935Y0019714D01*
X0144741Y0019740D01*
X0144546Y0019762D01*
X0144351Y0019778D01*
X0144156Y0019790D01*
X0143960Y0019798D01*
X0143765Y0019800D01*
X0143764Y0019800D02*
X0143571Y0019798D01*
X0143378Y0019791D01*
X0143186Y0019779D01*
X0142993Y0019763D01*
X0142801Y0019742D01*
X0142610Y0019716D01*
X0142420Y0019686D01*
X0142230Y0019651D01*
X0142041Y0019612D01*
X0141853Y0019568D01*
X0141666Y0019520D01*
X0141480Y0019467D01*
X0141296Y0019410D01*
X0141113Y0019348D01*
X0140932Y0019282D01*
X0140752Y0019211D01*
X0140574Y0019137D01*
X0140398Y0019058D01*
X0140224Y0018974D01*
X0140052Y0018887D01*
X0139882Y0018795D01*
X0139715Y0018699D01*
X0139549Y0018600D01*
X0139386Y0018496D01*
X0139226Y0018389D01*
X0139069Y0018277D01*
X0138914Y0018162D01*
X0138762Y0018043D01*
X0138613Y0017921D01*
X0138466Y0017795D01*
X0138323Y0017665D01*
X0138183Y0017532D01*
X0138047Y0017396D01*
X0137913Y0017256D01*
X0137784Y0017114D01*
X0137657Y0016968D01*
X0137618Y0006678D02*
X0137745Y0006530D01*
X0137875Y0006385D01*
X0138008Y0006244D01*
X0138145Y0006105D01*
X0138285Y0005970D01*
X0138429Y0005839D01*
X0138576Y0005711D01*
X0138725Y0005586D01*
X0138878Y0005465D01*
X0139033Y0005348D01*
X0139192Y0005235D01*
X0139353Y0005126D01*
X0139517Y0005021D01*
X0139683Y0004919D01*
X0139852Y0004822D01*
X0140022Y0004729D01*
X0140196Y0004640D01*
X0140371Y0004555D01*
X0140548Y0004475D01*
X0140727Y0004399D01*
X0140908Y0004327D01*
X0141091Y0004260D01*
X0141275Y0004197D01*
X0141461Y0004139D01*
X0141648Y0004085D01*
X0141836Y0004036D01*
X0142026Y0003991D01*
X0142216Y0003951D01*
X0142408Y0003916D01*
X0142600Y0003885D01*
X0142793Y0003859D01*
X0142987Y0003838D01*
X0143181Y0003821D01*
X0143375Y0003809D01*
X0143569Y0003802D01*
X0143764Y0003800D01*
X0141764Y0150800D02*
X0138764Y0150800D01*
X0135764Y0150800D01*
X0135764Y0152800D02*
X0138764Y0152800D01*
X0141764Y0152800D01*
X0145764Y0185800D02*
X0148764Y0185800D01*
X0151764Y0185800D01*
X0151764Y0187800D02*
X0148764Y0187800D01*
X0145764Y0187800D01*
X0086764Y0175300D02*
X0083764Y0175300D01*
X0080764Y0175300D01*
X0080764Y0173300D02*
X0083764Y0173300D01*
X0086764Y0173300D01*
D13*
X0090010Y0175093D02*
X0090010Y0176594D01*
X0090761Y0177345D01*
X0091512Y0178946D02*
X0090010Y0180447D01*
X0094514Y0180447D01*
X0094514Y0178946D02*
X0094514Y0181949D01*
X0099886Y0183926D02*
X0099886Y0199674D01*
X0084138Y0199674D01*
X0084138Y0207548D01*
X0076264Y0207548D01*
X0076264Y0199674D01*
X0084138Y0199674D01*
X0076264Y0199674D02*
X0052642Y0199674D01*
X0052642Y0183926D01*
X0099886Y0183926D01*
X0101343Y0185111D02*
X0102923Y0185111D01*
X0103550Y0179611D02*
X0120042Y0179611D01*
X0120669Y0185111D02*
X0122248Y0185111D01*
X0125296Y0188861D02*
X0126798Y0188861D01*
X0127548Y0189612D01*
X0127548Y0193365D01*
X0129150Y0192614D02*
X0129150Y0191864D01*
X0129900Y0191113D01*
X0131402Y0191113D01*
X0132152Y0190362D01*
X0132152Y0189612D01*
X0131402Y0188861D01*
X0129900Y0188861D01*
X0129150Y0189612D01*
X0130651Y0188110D02*
X0130651Y0194116D01*
X0131402Y0193365D02*
X0132152Y0192614D01*
X0131402Y0193365D02*
X0129900Y0193365D01*
X0129150Y0192614D01*
X0133754Y0191864D02*
X0135255Y0193365D01*
X0135255Y0188861D01*
X0133754Y0188861D02*
X0136756Y0188861D01*
X0138010Y0184906D02*
X0140262Y0182654D01*
X0140262Y0185656D01*
X0142514Y0184906D02*
X0138010Y0184906D01*
X0138761Y0181053D02*
X0138010Y0180302D01*
X0138010Y0178801D01*
X0138761Y0178050D01*
X0141764Y0178050D01*
X0142514Y0178801D01*
X0142514Y0180302D01*
X0141764Y0181053D01*
X0144761Y0185342D02*
X0147764Y0185342D01*
X0148514Y0186093D01*
X0148514Y0187594D01*
X0147764Y0188345D01*
X0147764Y0189946D02*
X0148514Y0190697D01*
X0148514Y0192198D01*
X0147764Y0192949D01*
X0146262Y0192949D01*
X0145512Y0192198D01*
X0145512Y0191447D01*
X0146262Y0189946D01*
X0144010Y0189946D01*
X0144010Y0192949D01*
X0144761Y0188345D02*
X0144010Y0187594D01*
X0144010Y0186093D01*
X0144761Y0185342D01*
X0153764Y0186800D02*
X0163764Y0176800D01*
X0168764Y0176800D01*
X0173764Y0176800D01*
X0183764Y0176800D01*
X0193764Y0186800D01*
X0183764Y0196800D01*
X0163764Y0196800D01*
X0153764Y0186800D01*
X0148764Y0159449D02*
X0149514Y0158698D01*
X0149514Y0157197D01*
X0148764Y0156446D01*
X0148764Y0154845D02*
X0149514Y0154094D01*
X0149514Y0152593D01*
X0148764Y0151842D01*
X0145761Y0151842D01*
X0145010Y0152593D01*
X0145010Y0154094D01*
X0145761Y0154845D01*
X0145761Y0156446D02*
X0145010Y0157197D01*
X0145010Y0158698D01*
X0145761Y0159449D01*
X0146512Y0159449D01*
X0147262Y0158698D01*
X0148013Y0159449D01*
X0148764Y0159449D01*
X0147262Y0158698D02*
X0147262Y0157947D01*
X0171806Y0155554D02*
X0171806Y0151050D01*
X0171806Y0152551D02*
X0174058Y0152551D01*
X0174809Y0153302D01*
X0174809Y0154803D01*
X0174058Y0155554D01*
X0171806Y0155554D01*
X0173308Y0152551D02*
X0174809Y0151050D01*
X0176410Y0153302D02*
X0179413Y0153302D01*
X0178662Y0151050D02*
X0178662Y0155554D01*
X0176410Y0153302D01*
X0208710Y0187143D02*
X0208710Y0188645D01*
X0208710Y0187894D02*
X0212464Y0187894D01*
X0213214Y0187143D01*
X0213214Y0186393D01*
X0212464Y0185642D01*
X0210962Y0190246D02*
X0210962Y0193249D01*
X0208710Y0192498D02*
X0210962Y0190246D01*
X0213214Y0192498D02*
X0208710Y0192498D01*
X0125296Y0188861D02*
X0124546Y0189612D01*
X0124546Y0193365D01*
X0112923Y0185111D02*
X0110669Y0185111D01*
X0103550Y0179611D02*
X0103397Y0179810D01*
X0103249Y0180012D01*
X0103106Y0180217D01*
X0102968Y0180426D01*
X0102835Y0180638D01*
X0102707Y0180853D01*
X0102585Y0181071D01*
X0102467Y0181292D01*
X0102355Y0181516D01*
X0102248Y0181742D01*
X0102147Y0181971D01*
X0102051Y0182202D01*
X0101960Y0182436D01*
X0101875Y0182671D01*
X0101796Y0182909D01*
X0101723Y0183148D01*
X0101655Y0183389D01*
X0101593Y0183631D01*
X0101537Y0183875D01*
X0101486Y0184121D01*
X0101442Y0184367D01*
X0101403Y0184614D01*
X0101371Y0184862D01*
X0101344Y0185111D01*
X0093764Y0177345D02*
X0094514Y0176594D01*
X0094514Y0175093D01*
X0093764Y0174342D01*
X0090761Y0174342D01*
X0090010Y0175093D01*
X0096924Y0168420D02*
X0096924Y0164667D01*
X0097674Y0163916D01*
X0099176Y0163916D01*
X0099926Y0164667D01*
X0099926Y0168420D01*
X0101528Y0167669D02*
X0101528Y0166919D01*
X0102278Y0166168D01*
X0103780Y0166168D01*
X0104530Y0165417D01*
X0104530Y0164667D01*
X0103780Y0163916D01*
X0102278Y0163916D01*
X0101528Y0164667D01*
X0103029Y0163166D02*
X0103029Y0169171D01*
X0103780Y0168420D02*
X0104530Y0167669D01*
X0103780Y0168420D02*
X0102278Y0168420D01*
X0101528Y0167669D01*
X0106132Y0167669D02*
X0106882Y0168420D01*
X0108384Y0168420D01*
X0109134Y0167669D01*
X0109134Y0166919D01*
X0106132Y0163916D01*
X0109134Y0163916D01*
X0120042Y0179611D02*
X0120197Y0179813D01*
X0120347Y0180018D01*
X0120493Y0180227D01*
X0120633Y0180440D01*
X0120768Y0180656D01*
X0120897Y0180875D01*
X0121021Y0181097D01*
X0121140Y0181322D01*
X0121253Y0181550D01*
X0121361Y0181780D01*
X0121463Y0182013D01*
X0121560Y0182249D01*
X0121651Y0182487D01*
X0121736Y0182726D01*
X0121815Y0182968D01*
X0121888Y0183212D01*
X0121955Y0183457D01*
X0122017Y0183704D01*
X0122072Y0183953D01*
X0122121Y0184203D01*
X0122164Y0184453D01*
X0122201Y0184705D01*
X0122232Y0184958D01*
X0122257Y0185211D01*
X0122276Y0185465D01*
X0122289Y0185719D01*
X0122295Y0185973D01*
X0122295Y0186228D01*
X0122289Y0186482D01*
X0122277Y0186737D01*
X0122259Y0186990D01*
X0122235Y0187244D01*
X0122204Y0187496D01*
X0122168Y0187748D01*
X0122125Y0187999D01*
X0122076Y0188249D01*
X0122021Y0188497D01*
X0121960Y0188744D01*
X0121894Y0188990D01*
X0121821Y0189234D01*
X0121742Y0189476D01*
X0121658Y0189716D01*
X0121567Y0189954D01*
X0121471Y0190190D01*
X0121370Y0190423D01*
X0121262Y0190654D01*
X0121150Y0190882D01*
X0121031Y0191107D01*
X0120907Y0191329D01*
X0120778Y0191549D01*
X0120644Y0191765D01*
X0120504Y0191978D01*
X0120359Y0192187D01*
X0120210Y0192393D01*
X0120055Y0192595D01*
X0119895Y0192793D01*
X0119731Y0192987D01*
X0119562Y0193178D01*
X0119389Y0193364D01*
X0119211Y0193546D01*
X0119028Y0193723D01*
X0118842Y0193896D01*
X0118651Y0194065D01*
X0118456Y0194229D01*
X0118257Y0194388D01*
X0118055Y0194542D01*
X0117849Y0194691D01*
X0117639Y0194835D01*
X0117426Y0194974D01*
X0117209Y0195108D01*
X0116990Y0195237D01*
X0116767Y0195360D01*
X0116541Y0195477D01*
X0116313Y0195590D01*
X0116082Y0195696D01*
X0115848Y0195797D01*
X0115612Y0195893D01*
X0115374Y0195982D01*
X0115134Y0196066D01*
X0114892Y0196144D01*
X0108700Y0196144D02*
X0108456Y0196066D01*
X0108214Y0195981D01*
X0107975Y0195891D01*
X0107737Y0195795D01*
X0107502Y0195693D01*
X0107269Y0195585D01*
X0107039Y0195472D01*
X0106812Y0195353D01*
X0106588Y0195229D01*
X0106367Y0195099D01*
X0106150Y0194964D01*
X0105935Y0194823D01*
X0105724Y0194677D01*
X0105517Y0194527D01*
X0105314Y0194371D01*
X0105114Y0194210D01*
X0104918Y0194045D01*
X0104727Y0193875D01*
X0104539Y0193700D01*
X0104356Y0193520D01*
X0104178Y0193337D01*
X0104003Y0193148D01*
X0103834Y0192956D01*
X0103669Y0192760D01*
X0103509Y0192559D01*
X0103355Y0192355D01*
X0103205Y0192147D01*
X0103060Y0191936D01*
X0102920Y0191721D01*
X0102786Y0191503D01*
X0102657Y0191281D01*
X0102534Y0191057D01*
X0102416Y0190829D01*
X0102303Y0190599D01*
X0102197Y0190366D01*
X0102096Y0190130D01*
X0102000Y0189892D01*
X0101911Y0189652D01*
X0101828Y0189410D01*
X0101750Y0189165D01*
X0101679Y0188919D01*
X0101613Y0188671D01*
X0101554Y0188422D01*
X0101500Y0188172D01*
X0101453Y0187920D01*
X0101412Y0187667D01*
X0101377Y0187413D01*
X0101348Y0187158D01*
X0101326Y0186903D01*
X0101310Y0186647D01*
X0101300Y0186391D01*
X0101296Y0186135D01*
X0101299Y0185878D01*
X0101307Y0185622D01*
X0101322Y0185366D01*
X0101344Y0185111D01*
X0135789Y0091239D02*
X0135038Y0090488D01*
X0135038Y0087486D01*
X0135789Y0086735D01*
X0137290Y0086735D01*
X0138040Y0087486D01*
X0139642Y0087486D02*
X0139642Y0088987D01*
X0141894Y0088987D01*
X0142644Y0088236D01*
X0142644Y0087486D01*
X0141894Y0086735D01*
X0140392Y0086735D01*
X0139642Y0087486D01*
X0139642Y0088987D02*
X0141143Y0090488D01*
X0142644Y0091239D01*
X0138040Y0090488D02*
X0137290Y0091239D01*
X0135789Y0091239D01*
X0083965Y0082143D02*
X0077960Y0082143D01*
X0078710Y0081393D02*
X0078710Y0082894D01*
X0079461Y0083645D01*
X0079461Y0085246D02*
X0078710Y0085997D01*
X0078710Y0087498D01*
X0079461Y0088249D01*
X0080212Y0088249D01*
X0080962Y0087498D01*
X0081713Y0088249D01*
X0082464Y0088249D01*
X0083214Y0087498D01*
X0083214Y0085997D01*
X0082464Y0085246D01*
X0082464Y0083645D02*
X0081713Y0083645D01*
X0080962Y0082894D01*
X0080962Y0081393D01*
X0080212Y0080642D01*
X0079461Y0080642D01*
X0078710Y0081393D01*
X0078710Y0079041D02*
X0082464Y0079041D01*
X0083214Y0078290D01*
X0083214Y0076789D01*
X0082464Y0076038D01*
X0078710Y0076038D01*
X0082464Y0080642D02*
X0083214Y0081393D01*
X0083214Y0082894D01*
X0082464Y0083645D01*
X0080962Y0086747D02*
X0080962Y0087498D01*
X0043329Y0057303D02*
X0042578Y0058054D01*
X0041077Y0058054D01*
X0040326Y0057303D01*
X0038725Y0057303D02*
X0038725Y0054301D01*
X0037974Y0053550D01*
X0035722Y0053550D01*
X0035722Y0058054D01*
X0037974Y0058054D01*
X0038725Y0057303D01*
X0040326Y0053550D02*
X0043329Y0056553D01*
X0043329Y0057303D01*
X0043329Y0053550D02*
X0040326Y0053550D01*
X0034121Y0053550D02*
X0031118Y0053550D01*
X0031118Y0058054D01*
X0034121Y0058054D01*
X0032620Y0055802D02*
X0031118Y0055802D01*
X0029517Y0053550D02*
X0026514Y0053550D01*
X0026514Y0058054D01*
X0018764Y0041800D02*
X0008764Y0031800D01*
X0008764Y0011800D01*
X0018764Y0001800D01*
X0028764Y0011800D01*
X0028764Y0016800D01*
X0028764Y0021800D01*
X0028764Y0031800D01*
X0018764Y0041800D01*
X0006666Y0061947D02*
X0007417Y0062697D01*
X0007417Y0063448D01*
X0006666Y0064199D01*
X0002913Y0064199D01*
X0002913Y0064949D02*
X0002913Y0063448D01*
X0003663Y0066551D02*
X0002913Y0067301D01*
X0002913Y0068803D01*
X0003663Y0069553D01*
X0004414Y0069553D01*
X0007417Y0066551D01*
X0007417Y0069553D01*
X0033761Y0022656D02*
X0033010Y0021906D01*
X0033010Y0020405D01*
X0033761Y0019654D01*
X0033761Y0018053D02*
X0035262Y0018053D01*
X0036013Y0017302D01*
X0036013Y0015050D01*
X0036013Y0016551D02*
X0037514Y0018053D01*
X0037514Y0019654D02*
X0034512Y0022656D01*
X0033761Y0022656D01*
X0037514Y0022656D02*
X0037514Y0019654D01*
X0033761Y0018053D02*
X0033010Y0017302D01*
X0033010Y0015050D01*
X0037514Y0015050D01*
X0062510Y0029842D02*
X0062510Y0032094D01*
X0063261Y0032845D01*
X0064762Y0032845D01*
X0065513Y0032094D01*
X0065513Y0029842D01*
X0067014Y0029842D02*
X0062510Y0029842D01*
X0065513Y0031343D02*
X0067014Y0032845D01*
X0066264Y0034446D02*
X0067014Y0035197D01*
X0067014Y0036698D01*
X0066264Y0037449D01*
X0065513Y0037449D01*
X0064762Y0036698D01*
X0064762Y0035947D01*
X0064762Y0036698D02*
X0064012Y0037449D01*
X0063261Y0037449D01*
X0062510Y0036698D01*
X0062510Y0035197D01*
X0063261Y0034446D01*
X0082510Y0034697D02*
X0083261Y0033946D01*
X0082510Y0034697D02*
X0082510Y0036198D01*
X0083261Y0036949D01*
X0084012Y0036949D01*
X0087014Y0033946D01*
X0087014Y0036949D01*
X0086264Y0032345D02*
X0087014Y0031594D01*
X0087014Y0030093D01*
X0086264Y0029342D01*
X0083261Y0029342D01*
X0082510Y0030093D01*
X0082510Y0031594D01*
X0083261Y0032345D01*
X0094514Y0020054D02*
X0096766Y0020054D01*
X0097517Y0019303D01*
X0097517Y0017802D01*
X0096766Y0017051D01*
X0094514Y0017051D01*
X0094514Y0015550D02*
X0094514Y0020054D01*
X0096016Y0017051D02*
X0097517Y0015550D01*
X0099118Y0015550D02*
X0102121Y0015550D01*
X0100620Y0015550D02*
X0100620Y0020054D01*
X0099118Y0018553D01*
X0118099Y0010054D02*
X0118099Y0005550D01*
X0121101Y0005550D01*
X0122702Y0005550D02*
X0125705Y0005550D01*
X0127306Y0005550D02*
X0129558Y0005550D01*
X0130309Y0006301D01*
X0130309Y0009303D01*
X0129558Y0010054D01*
X0127306Y0010054D01*
X0127306Y0005550D01*
X0124204Y0007802D02*
X0122702Y0007802D01*
X0122702Y0010054D02*
X0122702Y0005550D01*
X0122702Y0010054D02*
X0125705Y0010054D01*
X0131910Y0008553D02*
X0133412Y0010054D01*
X0133412Y0005550D01*
X0134913Y0005550D02*
X0131910Y0005550D01*
X0189645Y0064137D02*
X0189645Y0065638D01*
X0189645Y0064888D02*
X0193398Y0064888D01*
X0194149Y0064137D01*
X0194149Y0063386D01*
X0193398Y0062636D01*
X0193398Y0067240D02*
X0194149Y0067990D01*
X0194149Y0069492D01*
X0193398Y0070242D01*
X0192648Y0070242D01*
X0191897Y0069492D01*
X0191897Y0068741D01*
X0191897Y0069492D02*
X0191146Y0070242D01*
X0190396Y0070242D01*
X0189645Y0069492D01*
X0189645Y0067990D01*
X0190396Y0067240D01*
D14*
X0054470Y0184972D02*
X0054470Y0185739D01*
X0053702Y0186507D01*
X0049866Y0186507D01*
X0049866Y0187274D02*
X0049866Y0185739D01*
X0051401Y0188809D02*
X0049866Y0190343D01*
X0054470Y0190343D01*
X0054470Y0188809D02*
X0054470Y0191878D01*
X0054470Y0184972D02*
X0053702Y0184205D01*
D15*
X0017367Y0141997D02*
X0012367Y0141997D01*
X0009867Y0139497D01*
X0009867Y0134497D01*
X0012367Y0131997D01*
X0009867Y0129497D01*
X0009867Y0124497D01*
X0012367Y0121997D01*
X0009867Y0119497D01*
X0009867Y0114497D01*
X0012367Y0111997D01*
X0009867Y0109497D01*
X0009867Y0104497D01*
X0012367Y0101997D01*
X0009867Y0099497D01*
X0009867Y0094497D01*
X0012367Y0091997D01*
X0009867Y0089497D01*
X0009867Y0084497D01*
X0012367Y0081997D01*
X0009867Y0079497D01*
X0009867Y0074497D01*
X0012367Y0071997D01*
X0009867Y0069497D01*
X0009867Y0064497D01*
X0012367Y0061997D01*
X0017367Y0061997D01*
X0019867Y0064497D01*
X0019867Y0069497D01*
X0017367Y0071997D01*
X0019867Y0074497D01*
X0019867Y0079497D01*
X0017367Y0081997D01*
X0019867Y0084497D01*
X0019867Y0089497D01*
X0017367Y0091997D01*
X0019867Y0094497D01*
X0019867Y0099497D01*
X0017367Y0101997D01*
X0019867Y0104497D01*
X0019867Y0109497D01*
X0017367Y0111997D01*
X0019867Y0114497D01*
X0019867Y0119497D01*
X0017367Y0121997D01*
X0019867Y0124497D01*
X0019867Y0129497D01*
X0017367Y0131997D01*
X0019867Y0134497D01*
X0019867Y0139497D01*
X0017367Y0141997D01*
X0068764Y0089300D02*
X0066264Y0086800D01*
X0066264Y0081800D01*
X0068764Y0079300D01*
X0066264Y0076800D01*
X0066264Y0071800D01*
X0068764Y0069300D01*
X0066264Y0066800D01*
X0066264Y0061800D01*
X0068764Y0059300D01*
X0073764Y0059300D01*
X0076264Y0061800D01*
X0076264Y0066800D01*
X0073764Y0069300D01*
X0076264Y0071800D01*
X0076264Y0076800D01*
X0073764Y0079300D01*
X0076264Y0081800D01*
X0076264Y0086800D01*
X0073764Y0089300D01*
X0068764Y0089300D01*
X0196599Y0090186D02*
X0196599Y0085186D01*
X0199099Y0082686D01*
X0196599Y0080186D01*
X0196599Y0075186D01*
X0199099Y0072686D01*
X0196599Y0070186D01*
X0196599Y0065186D01*
X0199099Y0062686D01*
X0204099Y0062686D01*
X0206599Y0065186D01*
X0206599Y0070186D01*
X0204099Y0072686D01*
X0206599Y0075186D01*
X0206599Y0080186D01*
X0204099Y0082686D01*
X0206599Y0085186D01*
X0206599Y0090186D01*
X0204099Y0092686D01*
X0206599Y0095186D01*
X0206599Y0100186D01*
X0204099Y0102686D01*
X0206599Y0105186D01*
X0206599Y0110186D01*
X0204099Y0112686D01*
X0206599Y0115186D01*
X0206599Y0120186D01*
X0204099Y0122686D01*
X0206599Y0125186D01*
X0206599Y0130186D01*
X0204099Y0132686D01*
X0206599Y0135186D01*
X0206599Y0140186D01*
X0204099Y0142686D01*
X0199099Y0142686D01*
X0196599Y0140186D01*
X0196599Y0135186D01*
X0199099Y0132686D01*
X0196599Y0130186D01*
X0196599Y0125186D01*
X0199099Y0122686D01*
X0196599Y0120186D01*
X0196599Y0115186D01*
X0199099Y0112686D01*
X0196599Y0110186D01*
X0196599Y0105186D01*
X0199099Y0102686D01*
X0196599Y0100186D01*
X0196599Y0095186D01*
X0199099Y0092686D01*
X0196599Y0090186D01*
X0198764Y0144300D02*
X0203764Y0144300D01*
X0206264Y0146800D01*
X0206264Y0151800D01*
X0203764Y0154300D01*
X0206264Y0156800D01*
X0206264Y0161800D01*
X0203764Y0164300D01*
X0206264Y0166800D01*
X0206264Y0171800D01*
X0203764Y0174300D01*
X0206264Y0176800D01*
X0206264Y0181800D01*
X0203764Y0184300D01*
X0206264Y0186800D01*
X0206264Y0191800D01*
X0203764Y0194300D01*
X0198764Y0194300D01*
X0196264Y0191800D01*
X0196264Y0186800D01*
X0198764Y0184300D01*
X0196264Y0181800D01*
X0196264Y0176800D01*
X0198764Y0174300D01*
X0196264Y0171800D01*
X0196264Y0166800D01*
X0198764Y0164300D01*
X0196264Y0161800D01*
X0196264Y0156800D01*
X0198764Y0154300D01*
X0196264Y0151800D01*
X0196264Y0146800D01*
X0198764Y0144300D01*
D16*
X0182964Y0161800D03*
X0154564Y0161800D03*
X0120464Y0009300D03*
X0092064Y0009300D03*
D17*
X0056264Y0012600D03*
X0043764Y0012600D03*
X0043764Y0041000D03*
X0056264Y0041000D03*
M02*
